<?xml version="1.0" standalone="no"?>
<!DOCTYPE svg PUBLIC "-//W3C//DTD SVG 20010904//EN"
 "http://www.w3.org/TR/2001/REC-SVG-20010904/DTD/svg10.dtd">
<svg version="1.0" xmlns="http://www.w3.org/2000/svg"
 width="100.000000pt" height="100.000000pt" viewBox="0 0 100.000000 100.000000"
 preserveAspectRatio="xMidYMid meet">

<g transform="translate(0.000000,100.000000) scale(0.100000,-0.100000)"
fill="#000000" stroke="none">
<path d="M63 848 c27 -65 331 -716 339 -725 7 -9 39 -13 93 -13 54 0 86 4 92
13 8 10 230 486 312 670 l30 68 -116 -3 -116 -3 -97 -213 c-54 -117 -101 -213
-105 -213 -5 0 -52 95 -106 213 l-97 213 -117 3 c-92 2 -116 0 -112 -10z m203
-70 c10 -18 77 -163 150 -323 l133 -290 -51 -3 c-28 -2 -54 0 -59 5 -11 12
-289 618 -289 632 0 7 19 11 50 11 46 0 51 -2 66 -32z m571 13 c-7 -28 -251
-560 -257 -560 -3 0 -17 26 -31 58 l-26 58 106 231 106 232 53 0 c48 0 54 -2
49 -19z"/>
</g>
</svg>
